<svg xmlns="http://www.w3.org/2000/svg" viewBox="0 0 224 350" width="224" height="350">
	<defs>
		<linearGradient id="grd1" gradientUnits="userSpaceOnUse"  x1="333.021" y1="124.108" x2="333.021" y2="263.236">
			<stop offset="0" stop-color="#7965b3"  />
			<stop offset="0.167" stop-color="#7361b0"  />
			<stop offset="1" stop-color="#564fa2"  />
		</linearGradient>
		<linearGradient id="grd2" gradientUnits="userSpaceOnUse"  x1="410.394" y1="124.108" x2="410.394" y2="263.236">
			<stop offset="0" stop-color="#7965b3"  />
			<stop offset="0.167" stop-color="#7361b0"  />
			<stop offset="1" stop-color="#564fa2"  />
		</linearGradient>
		<linearGradient id="grd3" gradientUnits="userSpaceOnUse"  x1="462.008" y1="124.108" x2="462.008" y2="263.236">
			<stop offset="0" stop-color="#7965b3"  />
			<stop offset="0.167" stop-color="#7361b0"  />
			<stop offset="1" stop-color="#564fa2"  />
		</linearGradient>
		<linearGradient id="grd4" gradientUnits="userSpaceOnUse"  x1="534.211" y1="124.108" x2="534.211" y2="263.236">
			<stop offset="0" stop-color="#7965b3"  />
			<stop offset="0.167" stop-color="#7361b0"  />
			<stop offset="1" stop-color="#564fa2"  />
		</linearGradient>
		<linearGradient id="grd5" gradientUnits="userSpaceOnUse"  x1="606.602" y1="124.108" x2="606.602" y2="263.236">
			<stop offset="0" stop-color="#7965b3"  />
			<stop offset="0.167" stop-color="#7361b0"  />
			<stop offset="1" stop-color="#564fa2"  />
		</linearGradient>
		<linearGradient id="grd6" gradientUnits="userSpaceOnUse"  x1="690.556" y1="124.108" x2="690.556" y2="263.236">
			<stop offset="0" stop-color="#7965b3"  />
			<stop offset="0.167" stop-color="#7361b0"  />
			<stop offset="1" stop-color="#564fa2"  />
		</linearGradient>
		<linearGradient id="grd7" gradientUnits="userSpaceOnUse"  x1="837.408" y1="124.108" x2="837.408" y2="263.236">
			<stop offset="0" stop-color="#7965b3"  />
			<stop offset="0.167" stop-color="#7361b0"  />
			<stop offset="1" stop-color="#564fa2"  />
		</linearGradient>
		<linearGradient id="grd8" gradientUnits="userSpaceOnUse"  x1="-1.371" y1="173.123" x2="223.298" y2="173.123">
			<stop offset="0" stop-color="#7965b3"  />
			<stop offset="0.167" stop-color="#7361b0"  />
			<stop offset="1" stop-color="#564fa2"  />
		</linearGradient>
	</defs>
	<style>
		tspan { white-space:pre }
		.shp0 { fill: url(#grd1) } 
		.shp1 { fill: url(#grd2) } 
		.shp2 { fill: url(#grd3) } 
		.shp3 { fill: url(#grd4) } 
		.shp4 { fill: url(#grd5) } 
		.shp5 { fill: url(#grd6) } 
		.shp6 { fill: url(#grd7) } 
		.shp7 { fill: url(#grd8) } 
	</style>
	<g id="Layer">
		<g id="Layer">
			<g id="Layer_1">
			</g>
			<g id="Vectors">
				<g id="Layer">
					<path id="Layer" class="shp0" d="M288.6,205.3c0,-14.9 4.5,-27 13.5,-36.1c9,-9.1 20.4,-13.7 34.2,-13.7c12.9,0 23,4.2 30.2,12.6c7.2,8.4 10.8,19.1 10.8,32l-0.6,7.5h-69.4c0.5,9.8 3.9,17.5 10.2,23.2c6.3,5.7 13.8,8.6 22.6,8.6c4.9,0 9.7,-0.9 14.3,-2.8c4.6,-1.9 8,-3.7 10.2,-5.5l3.4,-2.8l7.9,13c-1,1 -2.5,2.3 -4.5,3.9c-2,1.6 -6.2,3.6 -12.6,6.2c-6.4,2.6 -12.9,3.9 -19.6,3.9c-14.9,0 -27.1,-4.7 -36.5,-14.2c-9.4,-9.6 -14.1,-21.5 -14.1,-35.8zM308.2,194.2h50.4c-0.3,-7.6 -2.5,-13.6 -6.8,-17.9c-4.3,-4.3 -9.5,-6.4 -15.6,-6.4c-7.1,0 -13.3,2.1 -18.3,6.3c-5.1,4.2 -8.3,10.2 -9.7,18z" />
					<path id="Layer" class="shp1" d="M401.3,240.8v-101c0,-2.8 -1.4,-4.1 -4.1,-4.1h-7.7v-15.6h18.1c4.3,0 7.3,0.9 9.2,2.8c1.9,1.9 2.8,5 2.8,9.2v101c0,2.8 1.4,4.1 4.1,4.1h7.7v15.6h-18.1c-4.3,0 -7.3,-0.9 -9.2,-2.8c-1.9,-1.8 -2.8,-4.9 -2.8,-9.2z" />
					<path id="Layer" class="shp2" d="M453,240.8v-63.4c0,-2.8 -1.4,-4.1 -4.1,-4.1h-7.7v-15.6h17.8c4.3,0 7.3,0.9 9.2,2.8c1.9,1.9 2.8,5 2.8,9.2v63.4c0,2.8 1.4,4.1 4.1,4.1h7.7v15.6h-17.8c-4.3,0 -7.3,-0.9 -9.2,-2.8c-1.9,-1.8 -2.8,-4.9 -2.8,-9.2zM453.4,139.1v-19h16.4v19z" />
					<path id="Layer" class="shp3" d="M490.6,252.9l32.2,-48.9l-18.2,-27.1c-1.6,-2.4 -4.3,-3.6 -8.1,-3.6h-5.3v-15.6h11.7c4.4,0 7.6,0.6 9.7,1.8c2.1,1.2 4.4,3.8 6.9,7.8l11.7,18.4l3,6h0.4c1.1,-2.4 2.2,-4.4 3.2,-6l11.5,-18.4c2.4,-4 4.6,-6.6 6.7,-7.8c2.1,-1.2 5.4,-1.8 9.9,-1.8h11.8v15.6h-5.5c-3.9,0 -6.6,1.1 -8.1,3.4l-18.2,27.3l32.2,48.9h-20.5l-20.1,-31l-2.8,-5.1h-0.4c-1,1.9 -2,3.6 -3,5.1l-19.7,31z" />
					<path id="Layer" class="shp4" d="M597.6,240.8v-63.4c0,-2.8 -1.4,-4.1 -4.1,-4.1h-7.7v-15.6h17.9c4.3,0 7.3,0.9 9.2,2.8c1.9,1.9 2.8,5 2.8,9.2v63.4c0,2.8 1.4,4.1 4.1,4.1h7.7v15.6h-17.9c-4.3,0 -7.3,-0.9 -9.2,-2.8c-1.9,-1.8 -2.8,-4.9 -2.8,-9.2zM598,139.1v-19h16.4v19z" />
					<path id="Layer" class="shp5" d="M648,218.6v-41.2c0,-2.8 -1.4,-4.1 -4.1,-4.1h-7.7v-15.6h17.9c4.3,0 7.4,0.9 9.3,2.8c1.9,1.9 2.9,4.8 2.9,8.8v45.1c0,7.6 1.2,13.5 3.7,17.6c2.4,4.1 7.1,6.1 14,6.1c9.4,0 16.9,-3.5 22.6,-10.5c5.6,-7 8.5,-15.5 8.5,-25.4v-44.6h18.2v75.4c0,2.8 1.4,4.1 4.1,4.1h7.7v15.6h-17.5c-8,0 -12,-3.5 -12,-10.5v-3.6l0.2,-5.5h-0.4c-2.4,5.5 -6.7,10.5 -12.9,15c-6.2,4.5 -13.6,6.8 -22.1,6.8c-10.8,0 -18.9,-3 -24.3,-8.9c-5.4,-5.8 -8.1,-14.9 -8.1,-27.4z" />
					<path id="Layer" class="shp6" d="M765.1,252.9v-75.4c0,-2.8 -1.4,-4.1 -4.1,-4.1h-7.7v-15.6h17.5c8,0 12,3.5 12,10.5v3.6l-0.2,5.5h0.4c2.4,-5.9 6.6,-11 12.7,-15.3c6.1,-4.3 12.7,-6.5 19.8,-6.5c15.8,0 25.3,7.2 28.6,21.6h0.4c2.8,-6 7.2,-11.1 13.4,-15.3c6.2,-4.2 13,-6.3 20.4,-6.3c20.9,0 31.4,12.2 31.4,36.5v41.2c0,2.8 1.4,4.1 4.1,4.1h7.7v15.6h-18.1c-4.3,0 -7.3,-0.9 -9.2,-2.8c-1.9,-1.9 -2.8,-5 -2.8,-9.2v-44.9c0,-7.6 -1.2,-13.5 -3.5,-17.7c-2.3,-4.1 -6.7,-6.2 -13.3,-6.2c-6.3,0 -11.8,2.4 -16.7,7.1c-4.9,4.7 -8.2,10.5 -10,17.4c-1,4.3 -1.5,8.6 -1.5,13v43.4h-18.2v-57c0,-7.5 -1.1,-13.4 -3.3,-17.6c-2.2,-4.2 -6.6,-6.3 -13.1,-6.3c-6.6,0 -12.4,2.4 -17.2,7.2c-4.8,4.8 -8.2,10.8 -10.1,18c-0.9,3.5 -1.3,7.6 -1.3,12.2v43.4h-18.1z" />
				</g>
				<path id="Layer" class="shp7" d="M222.6,276.1l-27.8,18.1c-0.3,0.2 -0.7,0.3 -1.2,0.3l-15,-0.4l-5.1,3.4l-17.4,11.7c0,0.1 -0.1,0.1 -0.1,0.1l-5.9,4.2l-5,13.8c-0.1,0.5 -0.4,0.8 -0.8,1.1l-31.7,21.2c-0.4,0.3 -0.8,0.4 -1.2,0.4c-0.4,0 -0.8,-0.2 -1.2,-0.4l-31.7,-21.2c-0.3,-0.3 -0.6,-0.7 -0.8,-1.1l-5,-13.8l-5.9,-4.2c0,-0.1 -0.1,-0.1 -0.1,-0.1l-17.4,-11.7l-5.1,-3.4l-15,0.4c-0.4,0.1 -0.8,-0.1 -1.2,-0.3l-27.9,-18.1c-0.1,-0.1 -0.1,-0.1 -0.1,-0.1c-0.1,0 -0.1,-0.1 -0.2,-0.1c-0.1,-0.1 -0.2,-0.2 -0.2,-0.2c-0.1,-0.1 -0.2,-0.3 -0.3,-0.4v-0.1c-0.1,-0.2 -0.2,-0.3 -0.2,-0.5c-0.1,-0.2 -0.1,-0.3 -0.1,-0.5c0,-0.1 0,-0.1 0,-0.1c0,-0.2 0.1,-0.3 0.1,-0.5v-0.1c0.1,-0.1 0.1,-0.1 0.1,-0.2l20.7,-50.7c0.1,-0.4 0.4,-0.8 0.8,-1l12.5,-8.1l24.4,-60.7l15.2,-38.4l-3.7,-14.2c-0.1,-0.4 -0.1,-0.9 0.1,-1.3l40,-101c0.1,0 0.1,-0.1 0.1,-0.1c0,-0.1 0.1,-0.1 0.1,-0.2c0,-0.1 0.1,-0.1 0.1,-0.2c0.1,-0.1 0.3,-0.3 0.4,-0.4c0.1,0 0.1,-0.1 0.2,-0.1c0,-0.1 0.1,-0.1 0.1,-0.1c0,0 0.1,-0.1 0.2,-0.1h0.1c0.1,-0.1 0.2,-0.1 0.3,-0.1c0.1,0 0.1,0 0.1,0c0,0 0.2,0 0.3,0c0.1,0 0.1,0 0.2,0c0,0 0.2,0 0.3,0c0,0 0.1,0.1 0.2,0.1c0,0.1 0.1,0.1 0.1,0.1c0.1,0 0.1,0.1 0.2,0.1l0.1,0.1c0.1,0 0.1,0.1 0.2,0.1l0.2,0.2c0,0.1 0.1,0.1 0.1,0.2c0,0 0.1,0 0.1,0.1c0,0.1 0.1,0.1 0.1,0.2c0.1,0 0.1,0.1 0.1,0.1l40,101c0.2,0.4 0.2,0.9 0.1,1.3l-3.7,14.2l15.2,38.5l24.4,60.6l12.5,8.1c0.3,0.2 0.6,0.6 0.8,1l20.6,50.5c0.2,0.4 0.3,0.7 0.3,1.1c0,0.8 -0.4,1.4 -0.7,1.9zM145,114l3.7,-14.3l-35.5,-89.7v197.7l103.5,61.3l-18,-44.1l-12.6,-8.2c-0.3,-0.2 -0.6,-0.6 -0.8,-1l-24.7,-61.3l-15.5,-39.1c-0.2,-0.4 -0.2,-0.9 -0.1,-1.3zM5.2,269l103.5,-61.2v-197.7l-35.5,89.7l3.7,14.2c0.1,0.4 0.1,0.9 -0.1,1.3l-15.5,39.1l-24.7,61.3c-0.1,0.4 -0.4,0.8 -0.8,1l-12.6,8.2zM216.9,274.2l-54.4,-32.2l-51.6,-30.5l-51.6,30.5l-54.4,32.2l24.4,15.8l15,-0.4c0.5,0 0.9,0.2 1.3,0.4l5.7,3.8l17.4,11.7l0.1,0.1l6.4,4.6c0.4,0.2 0.6,0.6 0.8,1l5,13.8l30,20l29.8,-19.9l5,-13.8c0.2,-0.4 0.4,-0.7 0.8,-1l6.5,-4.6l0.1,-0.1l17.4,-11.7l5.7,-3.8c0.4,-0.3 0.8,-0.4 1.3,-0.4l15,0.4z" />
			</g>
		</g>
	</g>
</svg>